<svg width="37" height="40" viewBox="0 0 37 40" fill="none" xmlns="http://www.w3.org/2000/svg">
<path fill-rule="evenodd" clip-rule="evenodd" d="M30.5505 34.5144C27.215 37.4336 22.9325 39.0416 18.5 39.039C14.0675 39.0416 9.78505 37.4336 6.44958 34.5144C3.11411 31.5952 0.952843 27.5636 0.368003 23.1698C-0.216838 18.7761 0.814582 14.3195 3.27031 10.6294C5.72605 6.93938 9.43881 4.26722 13.7177 3.11025C13.6134 2.7472 13.595 2.36488 13.6638 1.99348C13.7326 1.62207 13.8868 1.27174 14.1141 0.970124C14.3415 0.668512 14.6359 0.423873 14.974 0.255514C15.3122 0.0871553 15.6848 -0.000316496 16.0625 8.6047e-07H20.9375C21.3153 -0.000316496 21.6879 0.0871553 22.026 0.255514C22.3642 0.423873 22.6585 0.668512 22.8859 0.970124C23.1133 1.27174 23.2675 1.62207 23.3363 1.99348C23.4051 2.36488 23.3867 2.7472 23.2824 3.11025C27.5613 4.26722 31.274 6.93938 33.7298 10.6294C36.1855 14.3195 37.2169 18.7761 36.6321 23.1698C36.0472 27.5636 33.886 31.5952 30.5505 34.5144ZM29.7033 31.961C32.6745 28.9897 34.3438 24.9598 34.3438 20.7578C34.3438 16.5557 32.6745 12.5258 29.7033 9.55453C26.732 6.58325 22.7021 4.914 18.5 4.914C14.298 4.914 10.2681 6.58325 7.29681 9.55453C4.32553 12.5258 2.65628 16.5557 2.65628 20.7578C2.65628 24.9598 4.32553 28.9897 7.29681 31.961C10.2681 34.9323 14.298 36.6015 18.5 36.6015C22.7021 36.6015 26.732 34.9323 29.7033 31.961ZM27.9818 11.2369L15.9162 18.135L9.02051 30.2006L21.0837 23.3025L27.9818 11.2369Z" fill="black"/>
</svg>
